<?xml version="1.0" standalone="no"?>
<!DOCTYPE svg PUBLIC "-//W3C//DTD SVG 20010904//EN"
 "http://www.w3.org/TR/2001/REC-SVG-20010904/DTD/svg10.dtd">
<svg version="1.0" xmlns="http://www.w3.org/2000/svg"
 width="558.000000pt" height="558.000000pt" viewBox="0 0 558.000000 558.000000"
 preserveAspectRatio="xMidYMid meet">
<metadata>
Created by potrace 1.11, written by Peter Selinger 2001-2013
</metadata>
<g transform="translate(0.000000,558.000000) scale(0.100000,-0.100000)"
fill="#000000" stroke="none">
<path d="M0 2790 l0 -2790 2790 0 2790 0 0 2790 0 2790 -2790 0 -2790 0 0
-2790z m3031 2320 c542 -53 985 -262 1388 -654 314 -307 524 -662 625 -1056
57 -224 71 -344 71 -610 0 -266 -14 -386 -71 -610 -96 -377 -282 -702 -578
-1007 -479 -496 -1050 -728 -1746 -710 -624 16 -1134 234 -1575 674 -392 390
-616 851 -674 1385 -14 123 -14 415 -1 533 60 542 283 1000 677 1392 378 375
829 595 1350 658 133 16 396 18 534 5z"/>
<path d="M2674 4209 c-86 -11 -138 -26 -221 -64 -170 -79 -323 -225 -406 -391
-94 -187 -108 -427 -38 -632 90 -261 334 -478 605 -537 116 -26 312 -17 421
19 253 83 459 288 541 541 32 97 44 291 25 401 -33 186 -149 373 -311 499
-179 139 -387 194 -616 164z"/>
<path d="M2230 2184 c-262 -40 -433 -121 -611 -291 -68 -65 -176 -207 -195
-257 -10 -26 223 -253 350 -341 242 -168 505 -264 805 -296 140 -14 422 -7
540 15 162 30 359 93 474 152 160 83 344 222 472 356 l95 100 -20 38 c-33 64
-137 196 -203 255 -174 159 -396 254 -624 270 -78 6 -101 3 -203 -23 -252 -66
-414 -63 -695 12 -55 15 -125 18 -185 10z"/>
</g>
</svg>
